<mxfile host="app.diagrams.net" modified="2021-11-04T08:28:08.683Z" agent="5.0 (Macintosh; Intel Mac OS X 10_15_7) AppleWebKit/537.36 (KHTML, like Gecko) Chrome/95.0.4638.54 Safari/537.36" etag="moLPN8PkAXMGF-XKZ_22" version="15.6.8" type="github">
  <diagram id="8TTe-FYzZjuJ3bXOilr_" name="Page-1">
    <mxGraphModel dx="3470" dy="768" grid="1" gridSize="10" guides="1" tooltips="1" connect="1" arrows="1" fold="1" page="1" pageScale="1" pageWidth="1654" pageHeight="1169" math="0" shadow="0">
      <root>
        <mxCell id="0" />
        <mxCell id="1" parent="0" />
        <mxCell id="9wk4nrIGjfBQMjjRyyHU-38" value="" style="rounded=0;whiteSpace=wrap;html=1;fontSize=12;" vertex="1" parent="1">
          <mxGeometry x="30" y="470" width="520" height="230" as="geometry" />
        </mxCell>
        <mxCell id="9wk4nrIGjfBQMjjRyyHU-8" style="edgeStyle=orthogonalEdgeStyle;rounded=0;orthogonalLoop=1;jettySize=auto;html=1;entryX=0.5;entryY=0;entryDx=0;entryDy=0;fontSize=12;" edge="1" parent="1" source="9wk4nrIGjfBQMjjRyyHU-1" target="9wk4nrIGjfBQMjjRyyHU-3">
          <mxGeometry relative="1" as="geometry">
            <Array as="points">
              <mxPoint x="390" y="130" />
            </Array>
          </mxGeometry>
        </mxCell>
        <mxCell id="9wk4nrIGjfBQMjjRyyHU-61" value="has a binding layer of" style="edgeLabel;html=1;align=center;verticalAlign=middle;resizable=0;points=[];fontSize=12;" vertex="1" connectable="0" parent="9wk4nrIGjfBQMjjRyyHU-8">
          <mxGeometry x="0.7649" y="3" relative="1" as="geometry">
            <mxPoint as="offset" />
          </mxGeometry>
        </mxCell>
        <mxCell id="9wk4nrIGjfBQMjjRyyHU-15" style="edgeStyle=orthogonalEdgeStyle;rounded=0;orthogonalLoop=1;jettySize=auto;html=1;entryX=0.5;entryY=0;entryDx=0;entryDy=0;fontSize=12;" edge="1" parent="1" source="9wk4nrIGjfBQMjjRyyHU-1" target="9wk4nrIGjfBQMjjRyyHU-4">
          <mxGeometry relative="1" as="geometry">
            <Array as="points">
              <mxPoint x="830" y="210" />
              <mxPoint x="650" y="210" />
            </Array>
          </mxGeometry>
        </mxCell>
        <mxCell id="9wk4nrIGjfBQMjjRyyHU-77" value="has a feature of" style="edgeLabel;html=1;align=center;verticalAlign=middle;resizable=0;points=[];fontSize=12;" vertex="1" connectable="0" parent="9wk4nrIGjfBQMjjRyyHU-15">
          <mxGeometry x="0.1067" y="1" relative="1" as="geometry">
            <mxPoint as="offset" />
          </mxGeometry>
        </mxCell>
        <mxCell id="9wk4nrIGjfBQMjjRyyHU-20" style="edgeStyle=orthogonalEdgeStyle;rounded=0;orthogonalLoop=1;jettySize=auto;html=1;exitX=0.5;exitY=1;exitDx=0;exitDy=0;entryX=0.5;entryY=0;entryDx=0;entryDy=0;fontSize=12;" edge="1" parent="1" source="9wk4nrIGjfBQMjjRyyHU-1" target="9wk4nrIGjfBQMjjRyyHU-5">
          <mxGeometry relative="1" as="geometry">
            <Array as="points">
              <mxPoint x="870" y="160" />
            </Array>
          </mxGeometry>
        </mxCell>
        <mxCell id="9wk4nrIGjfBQMjjRyyHU-101" value="has a library of" style="edgeLabel;html=1;align=center;verticalAlign=middle;resizable=0;points=[];fontSize=12;" vertex="1" connectable="0" parent="9wk4nrIGjfBQMjjRyyHU-20">
          <mxGeometry x="0.6" y="3" relative="1" as="geometry">
            <mxPoint as="offset" />
          </mxGeometry>
        </mxCell>
        <mxCell id="9wk4nrIGjfBQMjjRyyHU-24" style="edgeStyle=orthogonalEdgeStyle;rounded=0;orthogonalLoop=1;jettySize=auto;html=1;exitX=1;exitY=0.5;exitDx=0;exitDy=0;entryX=0.5;entryY=0;entryDx=0;entryDy=0;fontSize=12;" edge="1" parent="1" source="9wk4nrIGjfBQMjjRyyHU-1" target="9wk4nrIGjfBQMjjRyyHU-6">
          <mxGeometry relative="1" as="geometry">
            <Array as="points">
              <mxPoint x="930" y="210" />
              <mxPoint x="1190" y="210" />
            </Array>
          </mxGeometry>
        </mxCell>
        <mxCell id="9wk4nrIGjfBQMjjRyyHU-102" value="has a feature of" style="edgeLabel;html=1;align=center;verticalAlign=middle;resizable=0;points=[];fontSize=12;" vertex="1" connectable="0" parent="9wk4nrIGjfBQMjjRyyHU-24">
          <mxGeometry x="-0.2585" y="1" relative="1" as="geometry">
            <mxPoint as="offset" />
          </mxGeometry>
        </mxCell>
        <mxCell id="9wk4nrIGjfBQMjjRyyHU-29" style="edgeStyle=orthogonalEdgeStyle;rounded=0;orthogonalLoop=1;jettySize=auto;html=1;entryX=0.5;entryY=0;entryDx=0;entryDy=0;fontSize=12;" edge="1" parent="1" source="9wk4nrIGjfBQMjjRyyHU-1" target="9wk4nrIGjfBQMjjRyyHU-7">
          <mxGeometry relative="1" as="geometry" />
        </mxCell>
        <mxCell id="9wk4nrIGjfBQMjjRyyHU-70" value="has a library of" style="edgeLabel;html=1;align=center;verticalAlign=middle;resizable=0;points=[];fontSize=12;" vertex="1" connectable="0" parent="9wk4nrIGjfBQMjjRyyHU-29">
          <mxGeometry x="-0.1821" y="-1" relative="1" as="geometry">
            <mxPoint as="offset" />
          </mxGeometry>
        </mxCell>
        <mxCell id="9wk4nrIGjfBQMjjRyyHU-51" style="edgeStyle=orthogonalEdgeStyle;rounded=0;orthogonalLoop=1;jettySize=auto;html=1;exitX=0;exitY=0.25;exitDx=0;exitDy=0;entryX=0.45;entryY=0;entryDx=0;entryDy=0;entryPerimeter=0;fontSize=12;" edge="1" parent="1" source="9wk4nrIGjfBQMjjRyyHU-1" target="9wk4nrIGjfBQMjjRyyHU-30">
          <mxGeometry relative="1" as="geometry">
            <Array as="points">
              <mxPoint x="810" y="130" />
              <mxPoint x="24" y="130" />
            </Array>
          </mxGeometry>
        </mxCell>
        <mxCell id="9wk4nrIGjfBQMjjRyyHU-55" value="consists of" style="edgeLabel;html=1;align=center;verticalAlign=middle;resizable=0;points=[];fontSize=12;" vertex="1" connectable="0" parent="9wk4nrIGjfBQMjjRyyHU-51">
          <mxGeometry x="0.3341" y="3" relative="1" as="geometry">
            <mxPoint as="offset" />
          </mxGeometry>
        </mxCell>
        <mxCell id="9wk4nrIGjfBQMjjRyyHU-1" value="REACT" style="rounded=0;whiteSpace=wrap;html=1;" vertex="1" parent="1">
          <mxGeometry x="810" y="100" width="120" height="60" as="geometry" />
        </mxCell>
        <mxCell id="9wk4nrIGjfBQMjjRyyHU-2" value="&lt;font style=&quot;font-size: 18px&quot;&gt;What have we learnt about React?&lt;/font&gt;" style="text;html=1;strokeColor=none;fillColor=none;align=center;verticalAlign=middle;whiteSpace=wrap;rounded=0;" vertex="1" parent="1">
          <mxGeometry x="330" y="30" width="320" height="60" as="geometry" />
        </mxCell>
        <mxCell id="9wk4nrIGjfBQMjjRyyHU-39" style="edgeStyle=orthogonalEdgeStyle;rounded=0;orthogonalLoop=1;jettySize=auto;html=1;exitX=0.5;exitY=1;exitDx=0;exitDy=0;fontSize=12;" edge="1" parent="1" source="9wk4nrIGjfBQMjjRyyHU-3">
          <mxGeometry relative="1" as="geometry">
            <mxPoint x="390" y="470" as="targetPoint" />
            <Array as="points">
              <mxPoint x="390" y="470" />
            </Array>
          </mxGeometry>
        </mxCell>
        <mxCell id="9wk4nrIGjfBQMjjRyyHU-62" value="manages data flow through" style="edgeLabel;html=1;align=center;verticalAlign=middle;resizable=0;points=[];fontSize=12;" vertex="1" connectable="0" parent="9wk4nrIGjfBQMjjRyyHU-39">
          <mxGeometry x="0.0769" relative="1" as="geometry">
            <mxPoint as="offset" />
          </mxGeometry>
        </mxCell>
        <mxCell id="9wk4nrIGjfBQMjjRyyHU-3" value="&lt;font style=&quot;font-size: 12px&quot;&gt;React-redux&lt;/font&gt;" style="rounded=0;whiteSpace=wrap;html=1;fontSize=18;" vertex="1" parent="1">
          <mxGeometry x="330" y="280" width="120" height="60" as="geometry" />
        </mxCell>
        <mxCell id="9wk4nrIGjfBQMjjRyyHU-17" style="edgeStyle=orthogonalEdgeStyle;rounded=0;orthogonalLoop=1;jettySize=auto;html=1;entryX=0.5;entryY=0;entryDx=0;entryDy=0;fontSize=12;" edge="1" parent="1" source="9wk4nrIGjfBQMjjRyyHU-4" target="9wk4nrIGjfBQMjjRyyHU-16">
          <mxGeometry relative="1" as="geometry">
            <Array as="points">
              <mxPoint x="600" y="390" />
              <mxPoint x="690" y="390" />
            </Array>
          </mxGeometry>
        </mxCell>
        <mxCell id="9wk4nrIGjfBQMjjRyyHU-54" style="edgeStyle=orthogonalEdgeStyle;rounded=0;orthogonalLoop=1;jettySize=auto;html=1;entryX=0.333;entryY=-0.083;entryDx=0;entryDy=0;entryPerimeter=0;fontSize=12;" edge="1" parent="1" source="9wk4nrIGjfBQMjjRyyHU-4" target="9wk4nrIGjfBQMjjRyyHU-18">
          <mxGeometry relative="1" as="geometry">
            <Array as="points">
              <mxPoint x="600" y="380" />
              <mxPoint x="600" y="380" />
            </Array>
          </mxGeometry>
        </mxCell>
        <mxCell id="9wk4nrIGjfBQMjjRyyHU-84" value="includes" style="edgeLabel;html=1;align=center;verticalAlign=middle;resizable=0;points=[];fontSize=12;" vertex="1" connectable="0" parent="9wk4nrIGjfBQMjjRyyHU-54">
          <mxGeometry x="-0.6904" y="-3" relative="1" as="geometry">
            <mxPoint as="offset" />
          </mxGeometry>
        </mxCell>
        <mxCell id="9wk4nrIGjfBQMjjRyyHU-4" value="Hooks" style="rounded=0;whiteSpace=wrap;html=1;fontSize=12;" vertex="1" parent="1">
          <mxGeometry x="590" y="280" width="120" height="60" as="geometry" />
        </mxCell>
        <mxCell id="9wk4nrIGjfBQMjjRyyHU-81" style="edgeStyle=orthogonalEdgeStyle;rounded=0;orthogonalLoop=1;jettySize=auto;html=1;entryX=0;entryY=0.5;entryDx=0;entryDy=0;fontSize=12;" edge="1" parent="1" source="9wk4nrIGjfBQMjjRyyHU-5" target="9wk4nrIGjfBQMjjRyyHU-22">
          <mxGeometry relative="1" as="geometry">
            <Array as="points">
              <mxPoint x="870" y="510" />
            </Array>
          </mxGeometry>
        </mxCell>
        <mxCell id="9wk4nrIGjfBQMjjRyyHU-82" style="edgeStyle=orthogonalEdgeStyle;rounded=0;orthogonalLoop=1;jettySize=auto;html=1;entryX=0;entryY=0.5;entryDx=0;entryDy=0;fontSize=12;" edge="1" parent="1" source="9wk4nrIGjfBQMjjRyyHU-5" target="9wk4nrIGjfBQMjjRyyHU-23">
          <mxGeometry relative="1" as="geometry">
            <Array as="points">
              <mxPoint x="870" y="590" />
            </Array>
          </mxGeometry>
        </mxCell>
        <mxCell id="9wk4nrIGjfBQMjjRyyHU-94" style="edgeStyle=orthogonalEdgeStyle;rounded=0;orthogonalLoop=1;jettySize=auto;html=1;entryX=0;entryY=0.5;entryDx=0;entryDy=0;fontSize=12;" edge="1" parent="1" source="9wk4nrIGjfBQMjjRyyHU-5" target="9wk4nrIGjfBQMjjRyyHU-21">
          <mxGeometry relative="1" as="geometry">
            <Array as="points">
              <mxPoint x="870" y="430" />
            </Array>
          </mxGeometry>
        </mxCell>
        <mxCell id="9wk4nrIGjfBQMjjRyyHU-5" value="React-router" style="rounded=0;whiteSpace=wrap;html=1;fontSize=12;" vertex="1" parent="1">
          <mxGeometry x="850" y="280" width="120" height="60" as="geometry" />
        </mxCell>
        <mxCell id="9wk4nrIGjfBQMjjRyyHU-71" style="edgeStyle=orthogonalEdgeStyle;rounded=0;orthogonalLoop=1;jettySize=auto;html=1;entryX=0.5;entryY=0;entryDx=0;entryDy=0;fontSize=12;" edge="1" parent="1" source="9wk4nrIGjfBQMjjRyyHU-6" target="9wk4nrIGjfBQMjjRyyHU-25">
          <mxGeometry relative="1" as="geometry" />
        </mxCell>
        <mxCell id="9wk4nrIGjfBQMjjRyyHU-72" value="implements" style="edgeLabel;html=1;align=center;verticalAlign=middle;resizable=0;points=[];fontSize=12;" vertex="1" connectable="0" parent="9wk4nrIGjfBQMjjRyyHU-71">
          <mxGeometry x="-0.05" relative="1" as="geometry">
            <mxPoint as="offset" />
          </mxGeometry>
        </mxCell>
        <mxCell id="9wk4nrIGjfBQMjjRyyHU-86" style="edgeStyle=orthogonalEdgeStyle;rounded=0;orthogonalLoop=1;jettySize=auto;html=1;fontSize=12;entryX=0.5;entryY=0;entryDx=0;entryDy=0;" edge="1" parent="1" source="9wk4nrIGjfBQMjjRyyHU-6" target="9wk4nrIGjfBQMjjRyyHU-85">
          <mxGeometry relative="1" as="geometry">
            <mxPoint x="1320" y="370" as="targetPoint" />
          </mxGeometry>
        </mxCell>
        <mxCell id="9wk4nrIGjfBQMjjRyyHU-87" value="is based on" style="edgeLabel;html=1;align=center;verticalAlign=middle;resizable=0;points=[];fontSize=12;" vertex="1" connectable="0" parent="9wk4nrIGjfBQMjjRyyHU-86">
          <mxGeometry x="-0.3714" y="-2" relative="1" as="geometry">
            <mxPoint as="offset" />
          </mxGeometry>
        </mxCell>
        <mxCell id="9wk4nrIGjfBQMjjRyyHU-6" value="Axios" style="rounded=0;whiteSpace=wrap;html=1;fontSize=12;" vertex="1" parent="1">
          <mxGeometry x="1130" y="280" width="120" height="60" as="geometry" />
        </mxCell>
        <mxCell id="9wk4nrIGjfBQMjjRyyHU-68" style="edgeStyle=orthogonalEdgeStyle;rounded=0;orthogonalLoop=1;jettySize=auto;html=1;entryX=0.5;entryY=0;entryDx=0;entryDy=0;fontSize=12;" edge="1" parent="1" source="9wk4nrIGjfBQMjjRyyHU-7" target="9wk4nrIGjfBQMjjRyyHU-31">
          <mxGeometry relative="1" as="geometry" />
        </mxCell>
        <mxCell id="9wk4nrIGjfBQMjjRyyHU-69" value="has" style="edgeLabel;html=1;align=center;verticalAlign=middle;resizable=0;points=[];fontSize=12;" vertex="1" connectable="0" parent="9wk4nrIGjfBQMjjRyyHU-68">
          <mxGeometry x="-0.2" y="1" relative="1" as="geometry">
            <mxPoint as="offset" />
          </mxGeometry>
        </mxCell>
        <mxCell id="9wk4nrIGjfBQMjjRyyHU-7" value="AntDesign UI" style="rounded=0;whiteSpace=wrap;html=1;fontSize=12;" vertex="1" parent="1">
          <mxGeometry x="1430" y="280" width="120" height="60" as="geometry" />
        </mxCell>
        <mxCell id="9wk4nrIGjfBQMjjRyyHU-32" value="subscribe" style="edgeStyle=orthogonalEdgeStyle;rounded=0;orthogonalLoop=1;jettySize=auto;html=1;fontSize=12;exitX=0.5;exitY=0;exitDx=0;exitDy=0;" edge="1" parent="1" source="9wk4nrIGjfBQMjjRyyHU-13" target="9wk4nrIGjfBQMjjRyyHU-9">
          <mxGeometry relative="1" as="geometry">
            <mxPoint x="450" y="600" as="sourcePoint" />
          </mxGeometry>
        </mxCell>
        <mxCell id="9wk4nrIGjfBQMjjRyyHU-9" value="Store" style="rounded=0;whiteSpace=wrap;html=1;fontSize=12;" vertex="1" parent="1">
          <mxGeometry x="390" y="500" width="120" height="60" as="geometry" />
        </mxCell>
        <mxCell id="9wk4nrIGjfBQMjjRyyHU-37" style="edgeStyle=orthogonalEdgeStyle;rounded=0;orthogonalLoop=1;jettySize=auto;html=1;exitX=1;exitY=0.5;exitDx=0;exitDy=0;entryX=0;entryY=0.5;entryDx=0;entryDy=0;fontSize=12;" edge="1" parent="1" source="9wk4nrIGjfBQMjjRyyHU-10" target="9wk4nrIGjfBQMjjRyyHU-9">
          <mxGeometry relative="1" as="geometry" />
        </mxCell>
        <mxCell id="9wk4nrIGjfBQMjjRyyHU-10" value="Reducer" style="rounded=0;whiteSpace=wrap;html=1;fontSize=12;" vertex="1" parent="1">
          <mxGeometry x="240" y="500" width="120" height="60" as="geometry" />
        </mxCell>
        <mxCell id="9wk4nrIGjfBQMjjRyyHU-36" style="edgeStyle=orthogonalEdgeStyle;rounded=0;orthogonalLoop=1;jettySize=auto;html=1;exitX=1;exitY=0.5;exitDx=0;exitDy=0;entryX=0;entryY=0.5;entryDx=0;entryDy=0;fontSize=12;" edge="1" parent="1" source="9wk4nrIGjfBQMjjRyyHU-11" target="9wk4nrIGjfBQMjjRyyHU-10">
          <mxGeometry relative="1" as="geometry" />
        </mxCell>
        <mxCell id="9wk4nrIGjfBQMjjRyyHU-11" value="Action" style="rounded=0;whiteSpace=wrap;html=1;fontSize=12;" vertex="1" parent="1">
          <mxGeometry x="80" y="500" width="120" height="60" as="geometry" />
        </mxCell>
        <mxCell id="9wk4nrIGjfBQMjjRyyHU-34" value="use" style="edgeStyle=orthogonalEdgeStyle;rounded=0;orthogonalLoop=1;jettySize=auto;html=1;exitX=0;exitY=0.5;exitDx=0;exitDy=0;entryX=1;entryY=0.5;entryDx=0;entryDy=0;fontSize=12;" edge="1" parent="1" source="9wk4nrIGjfBQMjjRyyHU-12" target="9wk4nrIGjfBQMjjRyyHU-14">
          <mxGeometry relative="1" as="geometry" />
        </mxCell>
        <mxCell id="9wk4nrIGjfBQMjjRyyHU-12" value="View" style="rounded=0;whiteSpace=wrap;html=1;fontSize=12;" vertex="1" parent="1">
          <mxGeometry x="240" y="605" width="120" height="60" as="geometry" />
        </mxCell>
        <mxCell id="9wk4nrIGjfBQMjjRyyHU-33" style="edgeStyle=orthogonalEdgeStyle;rounded=0;orthogonalLoop=1;jettySize=auto;html=1;exitX=1;exitY=0.5;exitDx=0;exitDy=0;entryX=0;entryY=0.5;entryDx=0;entryDy=0;fontSize=12;" edge="1" parent="1" source="9wk4nrIGjfBQMjjRyyHU-12" target="9wk4nrIGjfBQMjjRyyHU-13">
          <mxGeometry relative="1" as="geometry" />
        </mxCell>
        <mxCell id="9wk4nrIGjfBQMjjRyyHU-13" value="useSelector" style="rounded=0;whiteSpace=wrap;html=1;fontSize=12;" vertex="1" parent="1">
          <mxGeometry x="390" y="605" width="120" height="60" as="geometry" />
        </mxCell>
        <mxCell id="9wk4nrIGjfBQMjjRyyHU-35" style="edgeStyle=orthogonalEdgeStyle;rounded=0;orthogonalLoop=1;jettySize=auto;html=1;exitX=0.5;exitY=0;exitDx=0;exitDy=0;entryX=0.5;entryY=1;entryDx=0;entryDy=0;fontSize=12;" edge="1" parent="1" source="9wk4nrIGjfBQMjjRyyHU-14" target="9wk4nrIGjfBQMjjRyyHU-11">
          <mxGeometry relative="1" as="geometry" />
        </mxCell>
        <mxCell id="9wk4nrIGjfBQMjjRyyHU-64" value="dispatch" style="edgeLabel;html=1;align=center;verticalAlign=middle;resizable=0;points=[];fontSize=12;" vertex="1" connectable="0" parent="9wk4nrIGjfBQMjjRyyHU-35">
          <mxGeometry x="-0.2" y="1" relative="1" as="geometry">
            <mxPoint as="offset" />
          </mxGeometry>
        </mxCell>
        <mxCell id="9wk4nrIGjfBQMjjRyyHU-14" value="useDispatch" style="rounded=0;whiteSpace=wrap;html=1;fontSize=12;" vertex="1" parent="1">
          <mxGeometry x="80" y="605" width="120" height="60" as="geometry" />
        </mxCell>
        <mxCell id="9wk4nrIGjfBQMjjRyyHU-16" value="useState" style="rounded=0;whiteSpace=wrap;html=1;fontSize=12;" vertex="1" parent="1">
          <mxGeometry x="630" y="430" width="120" height="60" as="geometry" />
        </mxCell>
        <mxCell id="9wk4nrIGjfBQMjjRyyHU-18" value="useEffect" style="rounded=0;whiteSpace=wrap;html=1;fontSize=12;" vertex="1" parent="1">
          <mxGeometry x="560" y="500" width="120" height="60" as="geometry" />
        </mxCell>
        <mxCell id="9wk4nrIGjfBQMjjRyyHU-21" value="BrowserRouter" style="rounded=0;whiteSpace=wrap;html=1;fontSize=12;" vertex="1" parent="1">
          <mxGeometry x="890" y="400" width="120" height="60" as="geometry" />
        </mxCell>
        <mxCell id="9wk4nrIGjfBQMjjRyyHU-22" value="Switch" style="rounded=0;whiteSpace=wrap;html=1;fontSize=12;" vertex="1" parent="1">
          <mxGeometry x="890" y="480" width="120" height="60" as="geometry" />
        </mxCell>
        <mxCell id="9wk4nrIGjfBQMjjRyyHU-23" value="Route" style="rounded=0;whiteSpace=wrap;html=1;fontSize=12;" vertex="1" parent="1">
          <mxGeometry x="890" y="560" width="120" height="60" as="geometry" />
        </mxCell>
        <mxCell id="9wk4nrIGjfBQMjjRyyHU-74" style="edgeStyle=orthogonalEdgeStyle;rounded=0;orthogonalLoop=1;jettySize=auto;html=1;entryX=0.5;entryY=0;entryDx=0;entryDy=0;fontSize=12;" edge="1" parent="1" source="9wk4nrIGjfBQMjjRyyHU-25" target="9wk4nrIGjfBQMjjRyyHU-27">
          <mxGeometry relative="1" as="geometry" />
        </mxCell>
        <mxCell id="9wk4nrIGjfBQMjjRyyHU-97" value="makes" style="edgeLabel;html=1;align=center;verticalAlign=middle;resizable=0;points=[];fontSize=12;" vertex="1" connectable="0" parent="9wk4nrIGjfBQMjjRyyHU-74">
          <mxGeometry x="-0.1" relative="1" as="geometry">
            <mxPoint as="offset" />
          </mxGeometry>
        </mxCell>
        <mxCell id="9wk4nrIGjfBQMjjRyyHU-25" value="XMLHttpRequest" style="rounded=0;whiteSpace=wrap;html=1;fontSize=12;" vertex="1" parent="1">
          <mxGeometry x="1130" y="380" width="120" height="60" as="geometry" />
        </mxCell>
        <mxCell id="9wk4nrIGjfBQMjjRyyHU-91" style="edgeStyle=orthogonalEdgeStyle;rounded=0;orthogonalLoop=1;jettySize=auto;html=1;fontSize=12;" edge="1" parent="1" source="9wk4nrIGjfBQMjjRyyHU-27" target="9wk4nrIGjfBQMjjRyyHU-88">
          <mxGeometry relative="1" as="geometry">
            <Array as="points">
              <mxPoint x="1190" y="583" />
              <mxPoint x="1260" y="583" />
            </Array>
          </mxGeometry>
        </mxCell>
        <mxCell id="9wk4nrIGjfBQMjjRyyHU-92" style="edgeStyle=orthogonalEdgeStyle;rounded=0;orthogonalLoop=1;jettySize=auto;html=1;entryX=0.5;entryY=0;entryDx=0;entryDy=0;fontSize=12;" edge="1" parent="1" source="9wk4nrIGjfBQMjjRyyHU-27" target="9wk4nrIGjfBQMjjRyyHU-89">
          <mxGeometry relative="1" as="geometry">
            <Array as="points">
              <mxPoint x="1190" y="580" />
              <mxPoint x="1120" y="580" />
            </Array>
          </mxGeometry>
        </mxCell>
        <mxCell id="9wk4nrIGjfBQMjjRyyHU-93" value="process data via" style="edgeLabel;html=1;align=center;verticalAlign=middle;resizable=0;points=[];fontSize=12;" vertex="1" connectable="0" parent="9wk4nrIGjfBQMjjRyyHU-92">
          <mxGeometry x="-0.7037" y="-2" relative="1" as="geometry">
            <mxPoint as="offset" />
          </mxGeometry>
        </mxCell>
        <mxCell id="9wk4nrIGjfBQMjjRyyHU-27" value="API calls" style="rounded=0;whiteSpace=wrap;html=1;fontSize=12;" vertex="1" parent="1">
          <mxGeometry x="1130" y="480" width="120" height="60" as="geometry" />
        </mxCell>
        <mxCell id="9wk4nrIGjfBQMjjRyyHU-52" style="edgeStyle=orthogonalEdgeStyle;rounded=0;orthogonalLoop=1;jettySize=auto;html=1;entryX=0.5;entryY=0;entryDx=0;entryDy=0;fontSize=12;" edge="1" parent="1" source="9wk4nrIGjfBQMjjRyyHU-30" target="9wk4nrIGjfBQMjjRyyHU-40">
          <mxGeometry relative="1" as="geometry" />
        </mxCell>
        <mxCell id="9wk4nrIGjfBQMjjRyyHU-56" value="manages" style="edgeLabel;html=1;align=center;verticalAlign=middle;resizable=0;points=[];fontSize=12;" vertex="1" connectable="0" parent="9wk4nrIGjfBQMjjRyyHU-52">
          <mxGeometry x="-0.2133" y="4" relative="1" as="geometry">
            <mxPoint as="offset" />
          </mxGeometry>
        </mxCell>
        <mxCell id="9wk4nrIGjfBQMjjRyyHU-60" style="edgeStyle=orthogonalEdgeStyle;rounded=0;orthogonalLoop=1;jettySize=auto;html=1;fontSize=12;entryX=0.5;entryY=0;entryDx=0;entryDy=0;" edge="1" parent="1" source="9wk4nrIGjfBQMjjRyyHU-30" target="9wk4nrIGjfBQMjjRyyHU-45">
          <mxGeometry relative="1" as="geometry">
            <mxPoint x="30" y="250" as="targetPoint" />
          </mxGeometry>
        </mxCell>
        <mxCell id="9wk4nrIGjfBQMjjRyyHU-30" value="Component" style="rounded=0;whiteSpace=wrap;html=1;fontSize=12;" vertex="1" parent="1">
          <mxGeometry x="-30" y="170" width="120" height="60" as="geometry" />
        </mxCell>
        <mxCell id="9wk4nrIGjfBQMjjRyyHU-98" style="edgeStyle=orthogonalEdgeStyle;rounded=0;orthogonalLoop=1;jettySize=auto;html=1;entryX=0;entryY=0.5;entryDx=0;entryDy=0;fontSize=12;" edge="1" parent="1" source="9wk4nrIGjfBQMjjRyyHU-31" target="9wk4nrIGjfBQMjjRyyHU-95">
          <mxGeometry relative="1" as="geometry">
            <Array as="points">
              <mxPoint x="1470" y="520" />
            </Array>
          </mxGeometry>
        </mxCell>
        <mxCell id="9wk4nrIGjfBQMjjRyyHU-99" style="edgeStyle=orthogonalEdgeStyle;rounded=0;orthogonalLoop=1;jettySize=auto;html=1;entryX=0;entryY=0.5;entryDx=0;entryDy=0;fontSize=12;" edge="1" parent="1" source="9wk4nrIGjfBQMjjRyyHU-31" target="9wk4nrIGjfBQMjjRyyHU-96">
          <mxGeometry relative="1" as="geometry">
            <Array as="points">
              <mxPoint x="1470" y="615" />
            </Array>
          </mxGeometry>
        </mxCell>
        <mxCell id="9wk4nrIGjfBQMjjRyyHU-100" value="includes" style="edgeLabel;html=1;align=center;verticalAlign=middle;resizable=0;points=[];fontSize=12;" vertex="1" connectable="0" parent="9wk4nrIGjfBQMjjRyyHU-99">
          <mxGeometry x="-0.7822" y="1" relative="1" as="geometry">
            <mxPoint as="offset" />
          </mxGeometry>
        </mxCell>
        <mxCell id="9wk4nrIGjfBQMjjRyyHU-31" value="Advantages" style="rounded=0;whiteSpace=wrap;html=1;fontSize=12;" vertex="1" parent="1">
          <mxGeometry x="1430" y="400" width="120" height="60" as="geometry" />
        </mxCell>
        <mxCell id="9wk4nrIGjfBQMjjRyyHU-40" value="State" style="rounded=0;whiteSpace=wrap;html=1;fontSize=12;" vertex="1" parent="1">
          <mxGeometry x="-180" y="260" width="120" height="60" as="geometry" />
        </mxCell>
        <mxCell id="9wk4nrIGjfBQMjjRyyHU-50" style="edgeStyle=orthogonalEdgeStyle;rounded=0;orthogonalLoop=1;jettySize=auto;html=1;exitX=0.5;exitY=1;exitDx=0;exitDy=0;fontSize=12;" edge="1" parent="1" source="9wk4nrIGjfBQMjjRyyHU-42">
          <mxGeometry relative="1" as="geometry">
            <mxPoint x="90" y="400" as="targetPoint" />
            <Array as="points">
              <mxPoint x="180" y="400" />
              <mxPoint x="90" y="400" />
            </Array>
          </mxGeometry>
        </mxCell>
        <mxCell id="9wk4nrIGjfBQMjjRyyHU-59" value="Retrieved by" style="edgeLabel;html=1;align=center;verticalAlign=middle;resizable=0;points=[];fontSize=12;" vertex="1" connectable="0" parent="9wk4nrIGjfBQMjjRyyHU-50">
          <mxGeometry x="0.1053" y="-2" relative="1" as="geometry">
            <mxPoint as="offset" />
          </mxGeometry>
        </mxCell>
        <mxCell id="9wk4nrIGjfBQMjjRyyHU-42" value="Props" style="rounded=0;whiteSpace=wrap;html=1;fontSize=12;" vertex="1" parent="1">
          <mxGeometry x="190" y="310" width="120" height="60" as="geometry" />
        </mxCell>
        <mxCell id="9wk4nrIGjfBQMjjRyyHU-49" style="edgeStyle=orthogonalEdgeStyle;rounded=0;orthogonalLoop=1;jettySize=auto;html=1;exitX=1;exitY=0.5;exitDx=0;exitDy=0;entryX=0.5;entryY=0;entryDx=0;entryDy=0;fontSize=12;" edge="1" parent="1" source="9wk4nrIGjfBQMjjRyyHU-45" target="9wk4nrIGjfBQMjjRyyHU-42">
          <mxGeometry relative="1" as="geometry" />
        </mxCell>
        <mxCell id="9wk4nrIGjfBQMjjRyyHU-58" value="Passes data through" style="edgeLabel;html=1;align=center;verticalAlign=middle;resizable=0;points=[];fontSize=12;" vertex="1" connectable="0" parent="9wk4nrIGjfBQMjjRyyHU-49">
          <mxGeometry x="-0.2727" y="2" relative="1" as="geometry">
            <mxPoint as="offset" />
          </mxGeometry>
        </mxCell>
        <mxCell id="9wk4nrIGjfBQMjjRyyHU-45" value="Parent component" style="rounded=0;whiteSpace=wrap;html=1;fontSize=12;" vertex="1" parent="1">
          <mxGeometry x="-30" y="260" width="120" height="60" as="geometry" />
        </mxCell>
        <mxCell id="9wk4nrIGjfBQMjjRyyHU-46" value="Child component" style="rounded=0;whiteSpace=wrap;html=1;fontSize=12;" vertex="1" parent="1">
          <mxGeometry x="-30" y="370" width="120" height="60" as="geometry" />
        </mxCell>
        <mxCell id="9wk4nrIGjfBQMjjRyyHU-66" value="belongs to" style="text;html=1;strokeColor=none;fillColor=none;align=center;verticalAlign=middle;whiteSpace=wrap;rounded=0;fontSize=12;" vertex="1" parent="1">
          <mxGeometry x="340" y="470" width="60" height="30" as="geometry" />
        </mxCell>
        <mxCell id="9wk4nrIGjfBQMjjRyyHU-79" value="belongs to" style="text;html=1;strokeColor=none;fillColor=none;align=center;verticalAlign=middle;whiteSpace=wrap;rounded=0;fontSize=12;" vertex="1" parent="1">
          <mxGeometry x="190" y="470" width="60" height="30" as="geometry" />
        </mxCell>
        <mxCell id="9wk4nrIGjfBQMjjRyyHU-83" value="has APIs of" style="text;html=1;strokeColor=none;fillColor=none;align=center;verticalAlign=middle;whiteSpace=wrap;rounded=0;fontSize=12;" vertex="1" parent="1">
          <mxGeometry x="800" y="350" width="70" height="30" as="geometry" />
        </mxCell>
        <mxCell id="9wk4nrIGjfBQMjjRyyHU-85" value="Promise" style="rounded=0;whiteSpace=wrap;html=1;fontSize=12;" vertex="1" parent="1">
          <mxGeometry x="1280" y="455" width="120" height="60" as="geometry" />
        </mxCell>
        <mxCell id="9wk4nrIGjfBQMjjRyyHU-88" value="JSON" style="rounded=0;whiteSpace=wrap;html=1;fontSize=12;" vertex="1" parent="1">
          <mxGeometry x="1210" y="605" width="120" height="60" as="geometry" />
        </mxCell>
        <mxCell id="9wk4nrIGjfBQMjjRyyHU-89" value="URL" style="rounded=0;whiteSpace=wrap;html=1;fontSize=12;" vertex="1" parent="1">
          <mxGeometry x="1060" y="605" width="120" height="60" as="geometry" />
        </mxCell>
        <mxCell id="9wk4nrIGjfBQMjjRyyHU-95" value="simplify design&amp;nbsp;" style="rounded=0;whiteSpace=wrap;html=1;fontSize=12;" vertex="1" parent="1">
          <mxGeometry x="1490" y="490" width="120" height="60" as="geometry" />
        </mxCell>
        <mxCell id="9wk4nrIGjfBQMjjRyyHU-96" value="development efficiency" style="rounded=0;whiteSpace=wrap;html=1;fontSize=12;" vertex="1" parent="1">
          <mxGeometry x="1490" y="584.5" width="120" height="60" as="geometry" />
        </mxCell>
      </root>
    </mxGraphModel>
  </diagram>
</mxfile>
